<svg class="animated" id="freepik_stories-interaction-design" xmlns="http://www.w3.org/2000/svg" viewBox="0 0 500 500" version="1.1" xmlns:xlink="http://www.w3.org/1999/xlink" xmlns:svgjs="http://svgjs.com/svgjs"><style>svg#freepik_stories-interaction-design:not(.animated) .animable {opacity: 0;}svg#freepik_stories-interaction-design.animated #freepik--background-simple--inject-423 {animation: 1s 1 forwards cubic-bezier(.36,-0.01,.5,1.38) zoomOut;animation-delay: 0s;}svg#freepik_stories-interaction-design.animated #freepik--Floor--inject-423 {animation: 1s 1 forwards cubic-bezier(.36,-0.01,.5,1.38) slideDown;animation-delay: 0s;}svg#freepik_stories-interaction-design.animated #freepik--Graphics--inject-423 {animation: 1s 1 forwards cubic-bezier(.36,-0.01,.5,1.38) slideUp,1.5s Infinite  linear floating;animation-delay: 0s,1s;}svg#freepik_stories-interaction-design.animated #freepik--Plants--inject-423 {animation: 1s 1 forwards cubic-bezier(.36,-0.01,.5,1.38) slideLeft;animation-delay: 0s;}svg#freepik_stories-interaction-design.animated #freepik--Character--inject-423 {animation: 1s 1 forwards cubic-bezier(.36,-0.01,.5,1.38) zoomIn,1.5s Infinite  linear shake;animation-delay: 0s,1s;}            @keyframes zoomOut {                0% {                    opacity: 0;                    transform: scale(1.5);                }                100% {                    opacity: 1;                    transform: scale(1);                }            }                    @keyframes slideDown {                0% {                    opacity: 0;                    transform: translateY(-30px);                }                100% {                    opacity: 1;                    transform: translateY(0);                }            }                    @keyframes slideUp {                0% {                    opacity: 0;                    transform: translateY(30px);                }                100% {                    opacity: 1;                    transform: inherit;                }            }                    @keyframes floating {                0% {                    opacity: 1;                    transform: translateY(0px);                }                50% {                    transform: translateY(-10px);                }                100% {                    opacity: 1;                    transform: translateY(0px);                }            }                    @keyframes slideLeft {                0% {                    opacity: 0;                    transform: translateX(-30px);                }                100% {                    opacity: 1;                    transform: translateX(0);                }            }                    @keyframes zoomIn {                0% {                    opacity: 0;                    transform: scale(0.5);                }                100% {                    opacity: 1;                    transform: scale(1);                }            }                    @keyframes shake {                10%, 90% {                    transform: translate3d(-1px, 0, 0);                  }                  20%, 80% {                    transform: translate3d(2px, 0, 0);                  }                  30%, 50%, 70% {                    transform: translate3d(-4px, 0, 0);                  }                  40%, 60% {                    transform: translate3d(4px, 0, 0);                  }            }        </style><g id="freepik--background-simple--inject-423" class="animable" style="transform-origin: 270.566px 225.278px;"><path d="M90.31,265.54s11.67,62.89,70.86,97,132.75,26,192.54,20.93S453.86,338,453,286.3s-48.36-59.67-81.69-113.58S337.27,99.53,280,72,144.72,78.6,111.4,145.83,90.31,265.54,90.31,265.54Z" style="fill: rgb(86, 107, 47); transform-origin: 270.566px 225.278px;" id="eljv0uzgbnnj" class="animable"></path><g id="el7sakb2tvh2"><path d="M90.31,265.54s11.67,62.89,70.86,97,132.75,26,192.54,20.93S453.86,338,453,286.3s-48.36-59.67-81.69-113.58S337.27,99.53,280,72,144.72,78.6,111.4,145.83,90.31,265.54,90.31,265.54Z" style="fill: rgb(255, 255, 255); opacity: 0.7; transform-origin: 270.566px 225.278px;" class="animable"></path></g></g><g id="freepik--Floor--inject-423" class="animable" style="transform-origin: 231.5px 435.78px;"><ellipse cx="231.5" cy="435.78" rx="155.18" ry="11.22" style="fill: rgb(86, 107, 47); transform-origin: 231.5px 435.78px;" id="elgtp1bmmn7fv" class="animable"></ellipse><g id="elbybx8sw04qq"><ellipse cx="231.5" cy="435.78" rx="155.18" ry="11.22" style="fill: rgb(255, 255, 255); opacity: 0.5; transform-origin: 231.5px 435.78px;" class="animable"></ellipse></g></g><g id="freepik--Graphics--inject-423" class="animable" style="transform-origin: 311.16px 240.675px;"><rect x="184.32" y="76.5" width="253.68" height="328.35" rx="10" style="fill: none; stroke: rgb(38, 50, 56); stroke-linecap: round; stroke-linejoin: round; stroke-width: 1.0229px; transform-origin: 311.16px 240.675px;" id="el6ufh876dc5w" class="animable"></rect><polyline points="290.83 166.73 290.83 167.75 289.81 167.75" style="fill: none; stroke: rgb(38, 50, 56); stroke-linecap: round; stroke-linejoin: round; stroke-width: 1.0229px; transform-origin: 290.32px 167.24px;" id="elysue168pnfl" class="animable"></polyline><line x1="287.79" y1="167.75" x2="228.3" y2="167.75" style="fill: none; stroke: rgb(38, 50, 56); stroke-linecap: round; stroke-linejoin: round; stroke-width: 1.0229px; stroke-dasharray: 2.01681, 2.01681; transform-origin: 258.045px 167.75px;" id="else104z7l028" class="animable"></line><polyline points="227.29 167.75 226.26 167.75 226.26 166.73" style="fill: none; stroke: rgb(38, 50, 56); stroke-linecap: round; stroke-linejoin: round; stroke-width: 1.0229px; transform-origin: 226.775px 167.24px;" id="elkc0bj88hn7" class="animable"></polyline><line x1="226.26" y1="164.76" x2="226.26" y2="118.49" style="fill: none; stroke: rgb(38, 50, 56); stroke-linecap: round; stroke-linejoin: round; stroke-width: 1.0229px; stroke-dasharray: 1.96912, 1.96912; transform-origin: 226.26px 141.625px;" id="el8oyu5hk5o97" class="animable"></line><polyline points="226.26 117.5 226.26 116.48 227.29 116.48" style="fill: none; stroke: rgb(38, 50, 56); stroke-linecap: round; stroke-linejoin: round; stroke-width: 1.0229px; transform-origin: 226.775px 116.99px;" id="el855xudh45a" class="animable"></polyline><line x1="229.3" y1="116.48" x2="288.8" y2="116.48" style="fill: none; stroke: rgb(38, 50, 56); stroke-linecap: round; stroke-linejoin: round; stroke-width: 1.0229px; stroke-dasharray: 2.01681, 2.01681; transform-origin: 259.05px 116.48px;" id="elsoprifqj6to" class="animable"></line><polyline points="289.81 116.48 290.83 116.48 290.83 117.5" style="fill: none; stroke: rgb(38, 50, 56); stroke-linecap: round; stroke-linejoin: round; stroke-width: 1.0229px; transform-origin: 290.32px 116.99px;" id="elvdkys098y3" class="animable"></polyline><line x1="290.83" y1="119.47" x2="290.83" y2="165.75" style="fill: none; stroke: rgb(38, 50, 56); stroke-linecap: round; stroke-linejoin: round; stroke-width: 1.0229px; stroke-dasharray: 1.96912, 1.96912; transform-origin: 290.83px 142.61px;" id="elf6efl7h72ch" class="animable"></line><rect x="236.57" y="124.67" width="43.95" height="34.9" style="fill: rgb(255, 255, 255); stroke: rgb(38, 50, 56); stroke-linecap: round; stroke-linejoin: round; stroke-width: 1.0229px; transform-origin: 258.545px 142.12px;" id="el8evgtxlevhg" class="animable"></rect><line x1="233.99" y1="122.08" x2="218.91" y2="110.45" style="fill: none; stroke: rgb(38, 50, 56); stroke-linecap: round; stroke-linejoin: round; stroke-width: 1.0229px; transform-origin: 226.45px 116.265px;" id="elms5btmgiqvl" class="animable"></line><line x1="283.54" y1="161.29" x2="296.47" y2="172.49" style="fill: none; stroke: rgb(38, 50, 56); stroke-linecap: round; stroke-linejoin: round; stroke-width: 1.0229px; transform-origin: 290.005px 166.89px;" id="eliyt4wmekob" class="animable"></line><polyline points="218.31 114.28 217.87 109.33 223.04 109.33" style="fill: none; stroke: rgb(38, 50, 56); stroke-linecap: round; stroke-linejoin: round; stroke-width: 1.0229px; transform-origin: 220.455px 111.805px;" id="elb1qgv3swkkw" class="animable"></polyline><polyline points="296.82 167.81 297.71 173.21 291.42 173.44" style="fill: none; stroke: rgb(38, 50, 56); stroke-linecap: round; stroke-linejoin: round; stroke-width: 1.0229px; transform-origin: 294.565px 170.625px;" id="el0hdu6493sttu" class="animable"></polyline><rect x="313.61" y="299.36" width="21.34" height="7.7" style="fill: rgb(38, 50, 56); transform-origin: 324.28px 303.21px;" id="elcdcd6waxwnf" class="animable"></rect><polygon points="343.62 303.2 329.94 295.31 329.94 311.1 343.62 303.2" style="fill: rgb(38, 50, 56); transform-origin: 336.78px 303.205px;" id="el6fxbpgictm9" class="animable"></polygon><rect x="242.21" y="246.25" width="62.94" height="122.84" rx="6.93" style="fill: rgb(38, 50, 56); stroke: rgb(38, 50, 56); stroke-linecap: round; stroke-linejoin: round; stroke-width: 0.829236px; transform-origin: 273.68px 307.67px;" id="elz2p6fccl7n9" class="animable"></rect><rect x="245.01" y="254.59" width="57.35" height="107.2" style="fill: rgb(255, 255, 255); stroke: rgb(38, 50, 56); stroke-linecap: round; stroke-linejoin: round; stroke-width: 0.829236px; transform-origin: 273.685px 308.19px;" id="elgc1fvorazc" class="animable"></rect><path d="M291.73,386l4.38-17a22.13,22.13,0,0,0,.72-5.61V343a3.12,3.12,0,0,0,.13-.81,3.45,3.45,0,0,0-3.64-3.22,3.84,3.84,0,0,0-2.66,1,3.49,3.49,0,0,0-3.61-2.95,3.74,3.74,0,0,0-3.07,1.5,3.5,3.5,0,0,0-3.6-2.9,3.78,3.78,0,0,0-3.08,1.51c0-2.7,0-15.65-.45-16.71-1.32-3.41-8-1.85-6.81,1.77v29.95c0-2.1-1.56-4.87-2.21-6.91s-1-4-2.24-5.7c-2.06-2.94-5.69-1.32-5.48,1.74.17,2.69,2.12,4.81,3.17,7.25,1.94,4.5.78,9.21,2.61,13.73a81.25,81.25,0,0,0,5.06,8.3,25.69,25.69,0,0,1,2.35,5.54L271.6,386" style="fill: rgb(255, 255, 255); stroke: rgb(38, 50, 56); stroke-linecap: round; stroke-linejoin: round; stroke-width: 1.0229px; transform-origin: 278.531px 352.263px;" id="el6jub9jg3tmh" class="animable"></path><line x1="273.73" y1="310.1" x2="273.73" y2="315.7" style="fill: none; stroke: rgb(38, 50, 56); stroke-linecap: round; stroke-linejoin: round; stroke-width: 1.0229px; transform-origin: 273.73px 312.9px;" id="elezuly9tuc2l" class="animable"></line><line x1="280.03" y1="320.94" x2="284.58" y2="320.94" style="fill: none; stroke: rgb(38, 50, 56); stroke-linecap: round; stroke-linejoin: round; stroke-width: 1.0229px; transform-origin: 282.305px 320.94px;" id="elvv00bzm0uv" class="animable"></line><line x1="261.14" y1="320.94" x2="265.69" y2="320.94" style="fill: none; stroke: rgb(38, 50, 56); stroke-linecap: round; stroke-linejoin: round; stroke-width: 1.0229px; transform-origin: 263.415px 320.94px;" id="elfpduf3uz6c" class="animable"></line><line x1="267.44" y1="315" x2="269.19" y2="317.79" style="fill: none; stroke: rgb(38, 50, 56); stroke-linecap: round; stroke-linejoin: round; stroke-width: 1.0229px; transform-origin: 268.315px 316.395px;" id="elw1psi8nvs6n" class="animable"></line><line x1="277.93" y1="318.14" x2="280.38" y2="315" style="fill: none; stroke: rgb(38, 50, 56); stroke-linecap: round; stroke-linejoin: round; stroke-width: 1.0229px; transform-origin: 279.155px 316.57px;" id="elpc4zqr1oqrp" class="animable"></line><rect x="247.15" y="296.11" width="53.17" height="6.65" style="fill: none; stroke: rgb(38, 50, 56); stroke-linecap: round; stroke-linejoin: round; stroke-width: 1.0229px; transform-origin: 273.735px 299.435px;" id="elmy2nab8lmig" class="animable"></rect><rect x="248.9" y="260.43" width="25.54" height="30.43" style="fill: none; stroke: rgb(38, 50, 56); stroke-linecap: round; stroke-linejoin: round; stroke-width: 1.0229px; transform-origin: 261.67px 275.645px;" id="el2o3xourtrzt" class="animable"></rect><line x1="248.9" y1="260.43" x2="274.43" y2="290.86" style="fill: none; stroke: rgb(38, 50, 56); stroke-linecap: round; stroke-linejoin: round; stroke-width: 1.0229px; transform-origin: 261.665px 275.645px;" id="elgj13q5oayo6" class="animable"></line><polyline points="248.2 349.63 248.2 306.25 299.97 306.25 299.97 349.28" style="fill: none; stroke: rgb(38, 50, 56); stroke-linecap: round; stroke-linejoin: round; stroke-width: 1.0229px; transform-origin: 274.085px 327.94px;" id="elic973cr48ua" class="animable"></polyline><rect x="348.06" y="246.25" width="62.94" height="122.84" rx="6.93" style="fill: rgb(38, 50, 56); stroke: rgb(38, 50, 56); stroke-linecap: round; stroke-linejoin: round; stroke-width: 0.829236px; transform-origin: 379.53px 307.67px;" id="elddnq6pvi77e" class="animable"></rect><rect x="350.86" y="254.59" width="57.35" height="107.2" style="fill: rgb(255, 255, 255); stroke: rgb(38, 50, 56); stroke-linecap: round; stroke-linejoin: round; stroke-width: 0.829236px; transform-origin: 379.535px 308.19px;" id="elzqcab4q084l" class="animable"></rect><rect x="353.84" y="259.73" width="51.77" height="56.67" style="fill: none; stroke: rgb(38, 50, 56); stroke-linecap: round; stroke-linejoin: round; stroke-width: 1.0229px; transform-origin: 379.725px 288.065px;" id="el9xir6gp6mq5" class="animable"></rect><line x1="353.84" y1="321.64" x2="405.61" y2="321.64" style="fill: none; stroke: rgb(38, 50, 56); stroke-linecap: round; stroke-linejoin: round; stroke-width: 1.0229px; transform-origin: 379.725px 321.64px;" id="elj4fecdqy89j" class="animable"></line><line x1="353.84" y1="325.84" x2="405.61" y2="325.84" style="fill: none; stroke: rgb(38, 50, 56); stroke-linecap: round; stroke-linejoin: round; stroke-width: 1.0229px; transform-origin: 379.725px 325.84px;" id="el0fumbjzdddcb" class="animable"></line><line x1="353.84" y1="330.04" x2="405.61" y2="330.04" style="fill: none; stroke: rgb(38, 50, 56); stroke-linecap: round; stroke-linejoin: round; stroke-width: 1.0229px; transform-origin: 379.725px 330.04px;" id="el7wjnvkeao6r" class="animable"></line><line x1="353.84" y1="334.24" x2="405.61" y2="334.24" style="fill: none; stroke: rgb(38, 50, 56); stroke-linecap: round; stroke-linejoin: round; stroke-width: 1.0229px; transform-origin: 379.725px 334.24px;" id="elstlul689eu" class="animable"></line><line x1="353.84" y1="338.43" x2="405.61" y2="338.43" style="fill: none; stroke: rgb(38, 50, 56); stroke-linecap: round; stroke-linejoin: round; stroke-width: 1.0229px; transform-origin: 379.725px 338.43px;" id="elga2kauntgjb" class="animable"></line><line x1="353.84" y1="342.63" x2="405.61" y2="342.63" style="fill: none; stroke: rgb(38, 50, 56); stroke-linecap: round; stroke-linejoin: round; stroke-width: 1.0229px; transform-origin: 379.725px 342.63px;" id="el69izrx2ys8h" class="animable"></line><line x1="353.84" y1="346.83" x2="405.61" y2="346.83" style="fill: none; stroke: rgb(38, 50, 56); stroke-linecap: round; stroke-linejoin: round; stroke-width: 1.0229px; transform-origin: 379.725px 346.83px;" id="el7fs53wb7azb" class="animable"></line><line x1="353.84" y1="316.4" x2="405.61" y2="259.73" style="fill: none; stroke: rgb(38, 50, 56); stroke-linecap: round; stroke-linejoin: round; stroke-width: 1.0229px; transform-origin: 379.725px 288.065px;" id="ela7a1bp9ngfe" class="animable"></line><rect x="348.06" y="105.24" width="62.94" height="122.84" rx="6.93" style="fill: rgb(38, 50, 56); stroke: rgb(38, 50, 56); stroke-linecap: round; stroke-linejoin: round; stroke-width: 0.829236px; transform-origin: 379.53px 166.66px;" id="ell2hvp5k712h" class="animable"></rect><rect x="350.86" y="113.58" width="57.35" height="107.2" style="fill: rgb(255, 255, 255); stroke: rgb(38, 50, 56); stroke-linecap: round; stroke-linejoin: round; stroke-width: 0.829236px; transform-origin: 379.535px 167.18px;" id="el11ysgt7xv1ja" class="animable"></rect><polyline points="284.65 242.59 284.65 209.92 330.62 209.92" style="fill: none; stroke: rgb(38, 50, 56); stroke-linecap: round; stroke-linejoin: round; stroke-width: 1.0229px; transform-origin: 307.635px 226.255px;" id="elwp4x5du008" class="animable"></polyline><polygon points="329.12 215.02 337.95 209.92 329.12 204.82 329.12 215.02" style="fill: rgb(38, 50, 56); transform-origin: 333.535px 209.92px;" id="elsugk694slnt" class="animable"></polygon><line x1="378.37" y1="241.73" x2="378.37" y2="216.65" style="fill: none; stroke: rgb(38, 50, 56); stroke-linecap: round; stroke-linejoin: round; stroke-width: 1.0229px; transform-origin: 378.37px 229.19px;" id="eldljdtqsay6" class="animable"></line><polygon points="383.47 218.15 378.37 209.31 373.27 218.15 383.47 218.15" style="fill: rgb(38, 50, 56); transform-origin: 378.37px 213.73px;" id="elkbrn3d7z5f" class="animable"></polygon><line x1="354.67" y1="380.27" x2="377.86" y2="380.27" style="fill: none; stroke: rgb(38, 50, 56); stroke-linecap: round; stroke-linejoin: round; stroke-width: 1.0229px; transform-origin: 366.265px 380.27px;" id="elqm9ylmlgaeo" class="animable"></line><line x1="354.67" y1="385.49" x2="377.86" y2="385.49" style="fill: none; stroke: rgb(38, 50, 56); stroke-linecap: round; stroke-linejoin: round; stroke-width: 1.0229px; transform-origin: 366.265px 385.49px;" id="eleh89crlhueg" class="animable"></line><line x1="354.67" y1="390.7" x2="377.86" y2="390.7" style="fill: none; stroke: rgb(38, 50, 56); stroke-linecap: round; stroke-linejoin: round; stroke-width: 1.0229px; transform-origin: 366.265px 390.7px;" id="elpjxve10w2u" class="animable"></line><line x1="298.44" y1="380.27" x2="321.63" y2="380.27" style="fill: none; stroke: rgb(38, 50, 56); stroke-linecap: round; stroke-linejoin: round; stroke-width: 1.0229px; transform-origin: 310.035px 380.27px;" id="elk0iev4r8nbc" class="animable"></line><line x1="298.44" y1="385.49" x2="321.63" y2="385.49" style="fill: none; stroke: rgb(38, 50, 56); stroke-linecap: round; stroke-linejoin: round; stroke-width: 1.0229px; transform-origin: 310.035px 385.49px;" id="el6tb0kvejdp3" class="animable"></line><line x1="298.44" y1="390.7" x2="321.63" y2="390.7" style="fill: none; stroke: rgb(38, 50, 56); stroke-linecap: round; stroke-linejoin: round; stroke-width: 1.0229px; transform-origin: 310.035px 390.7px;" id="eljmf4fpd0cv" class="animable"></line><line x1="292.06" y1="220.27" x2="315.25" y2="220.27" style="fill: none; stroke: rgb(38, 50, 56); stroke-linecap: round; stroke-linejoin: round; stroke-width: 1.0229px; transform-origin: 303.655px 220.27px;" id="eljt3bl91lf3c" class="animable"></line><line x1="292.06" y1="225.48" x2="315.25" y2="225.48" style="fill: none; stroke: rgb(38, 50, 56); stroke-linecap: round; stroke-linejoin: round; stroke-width: 1.0229px; transform-origin: 303.655px 225.48px;" id="elbmhcdgiayf7" class="animable"></line><line x1="292.06" y1="230.7" x2="315.25" y2="230.7" style="fill: none; stroke: rgb(38, 50, 56); stroke-linecap: round; stroke-linejoin: round; stroke-width: 1.0229px; transform-origin: 303.655px 230.7px;" id="elpa9wnsg8kp9" class="animable"></line><line x1="309.45" y1="157.08" x2="332.64" y2="157.08" style="fill: none; stroke: rgb(38, 50, 56); stroke-linecap: round; stroke-linejoin: round; stroke-width: 1.0229px; transform-origin: 321.045px 157.08px;" id="el5rbstbgibcb" class="animable"></line><line x1="309.45" y1="162.3" x2="332.64" y2="162.3" style="fill: none; stroke: rgb(38, 50, 56); stroke-linecap: round; stroke-linejoin: round; stroke-width: 1.0229px; transform-origin: 321.045px 162.3px;" id="el64scgw3t2vu" class="animable"></line><line x1="309.45" y1="167.51" x2="332.64" y2="167.51" style="fill: none; stroke: rgb(38, 50, 56); stroke-linecap: round; stroke-linejoin: round; stroke-width: 1.0229px; transform-origin: 321.045px 167.51px;" id="elaykxmrl7i2n" class="animable"></line><line x1="225.97" y1="175.05" x2="249.16" y2="175.05" style="fill: none; stroke: rgb(38, 50, 56); stroke-linecap: round; stroke-linejoin: round; stroke-width: 1.0229px; transform-origin: 237.565px 175.05px;" id="eljbfyc3b7i0j" class="animable"></line><line x1="225.97" y1="180.27" x2="249.16" y2="180.27" style="fill: none; stroke: rgb(38, 50, 56); stroke-linecap: round; stroke-linejoin: round; stroke-width: 1.0229px; transform-origin: 237.565px 180.27px;" id="elf94ell6uts" class="animable"></line><line x1="225.97" y1="185.48" x2="249.16" y2="185.48" style="fill: none; stroke: rgb(38, 50, 56); stroke-linecap: round; stroke-linejoin: round; stroke-width: 1.0229px; transform-origin: 237.565px 185.48px;" id="el6vey7ykqblf" class="animable"></line></g><g id="freepik--Plants--inject-423" class="animable" style="transform-origin: 95.8615px 333.02px;"><path d="M112.84,252s0-4.32-6.06-10.38-10-9.52-10-9.52-3,10,2.59,16a106.29,106.29,0,0,0,13.42,11.68Z" style="fill: rgb(86, 107, 47); transform-origin: 104.408px 245.94px;" id="elykhqfxmrumm" class="animable"></path><path d="M104.05,279.06s0-4.33-6.06-10.39S88,259.15,88,259.15s-3,10,2.59,16a107.24,107.24,0,0,0,13.42,11.68Z" style="fill: rgb(86, 107, 47); transform-origin: 95.623px 272.99px;" id="elkz8m7tsgfsh" class="animable"></path><path d="M112.46,259.4s.46-4.3,7.12-9.68,10.9-8.42,10.9-8.42,2,10.22-4.27,15.65a106.2,106.2,0,0,1-14.57,10.2Z" style="fill: rgb(86, 107, 47); transform-origin: 121.212px 254.225px;" id="elxvf6rxz15ak" class="animable"></path><path d="M101.84,291.32s.9-4.23,8.1-8.88,11.72-7.23,11.72-7.23.88,10.37-5.89,15.11a106.19,106.19,0,0,1-15.57,8.62Z" style="fill: rgb(86, 107, 47); transform-origin: 110.949px 287.075px;" id="elth8862ounr" class="animable"></path><path d="M103.83,326.12s0-4.33,6.06-10.39,10-9.52,10-9.52,3,10-2.59,16a106.8,106.8,0,0,1-13.42,11.69Z" style="fill: rgb(86, 107, 47); transform-origin: 112.262px 320.055px;" id="elx71eds1zwci" class="animable"></path><path d="M103.73,334.61s.62-4.28-4.52-11.14-8.5-10.84-8.5-10.84-4.41,9.43.3,16.22a105.34,105.34,0,0,0,11.62,13.47Z" style="fill: rgb(86, 107, 47); transform-origin: 96.2947px 327.475px;" id="elxt7oso4mvp" class="animable"></path><path d="M97.76,359.79s0-4.33,6.06-10.39,10-9.52,10-9.52,3,9.95-2.6,16a105.79,105.79,0,0,1-13.41,11.68Z" style="fill: rgb(86, 107, 47); transform-origin: 106.191px 353.72px;" id="el7l11br1eubf" class="animable"></path><path d="M101.8,382.61S100.71,378.42,105,371s7.22-11.73,7.22-11.73,5.45,8.86,1.55,16.14a106.26,106.26,0,0,1-10,14.7Z" style="fill: rgb(86, 107, 47); transform-origin: 108.426px 374.69px;" id="elx888slqz3f" class="animable"></path><path d="M113.39,250.93a124.44,124.44,0,0,1-1.66,13.43c-2.4,12.37-8.38,20.36-10.78,31.53s4.48,25.58,2.64,39.93-7.43,22.34-5.83,31.92,10,35.52,10,35.52" style="fill: none; stroke: rgb(38, 50, 56); stroke-linecap: round; stroke-linejoin: round; stroke-width: 1.03476px; transform-origin: 105.433px 327.095px;" id="elp45fwnqtxxf" class="animable"></path><line x1="112.4" y1="262.28" x2="118.93" y2="257.27" style="fill: none; stroke: rgb(38, 50, 56); stroke-linecap: round; stroke-linejoin: round; stroke-width: 1.03476px; transform-origin: 115.665px 259.775px;" id="elfrraceo1ll5" class="animable"></line><line x1="112.7" y1="256.51" x2="109.97" y2="251.65" style="fill: none; stroke: rgb(38, 50, 56); stroke-linecap: round; stroke-linejoin: round; stroke-width: 1.03476px; transform-origin: 111.335px 254.08px;" id="elp1o6abruyt" class="animable"></line><path d="M101.31,295.38s5.47-4.1,11.09-8.2" style="fill: none; stroke: rgb(38, 50, 56); stroke-linecap: round; stroke-linejoin: round; stroke-width: 1.03476px; transform-origin: 106.855px 291.28px;" id="eloaiq73scctk" class="animable"></path><path d="M104.05,286.85s-4.56-8.93-9.72-14.85" style="fill: none; stroke: rgb(38, 50, 56); stroke-linecap: round; stroke-linejoin: round; stroke-width: 1.03476px; transform-origin: 99.19px 279.425px;" id="elbbid4pfs0r7" class="animable"></path><path d="M104.05,332.28a67.41,67.41,0,0,1,11.69-15.64" style="fill: none; stroke: rgb(38, 50, 56); stroke-linecap: round; stroke-linejoin: round; stroke-width: 1.03476px; transform-origin: 109.895px 324.46px;" id="eluyyke7kfvur" class="animable"></path><path d="M103,338.35a76.86,76.86,0,0,0-5.93-11.24c-3.18-4.7-3.64-5.31-3.64-5.31" style="fill: none; stroke: rgb(38, 50, 56); stroke-linecap: round; stroke-linejoin: round; stroke-width: 1.03476px; transform-origin: 98.215px 330.075px;" id="elagouknh0h2h" class="animable"></path><path d="M97.76,367.74a73.19,73.19,0,0,1,4.92-10,63.51,63.51,0,0,1,6.38-8.35" style="fill: none; stroke: rgb(38, 50, 56); stroke-linecap: round; stroke-linejoin: round; stroke-width: 1.03476px; transform-origin: 103.41px 358.565px;" id="el8621rkmqvvq" class="animable"></path><path d="M103.78,390.14a18.57,18.57,0,0,1,1.63-9.58c2.28-4.41,4.86-10.17,5.93-12.45" style="fill: none; stroke: rgb(38, 50, 56); stroke-linecap: round; stroke-linejoin: round; stroke-width: 1.03476px; transform-origin: 107.517px 379.125px;" id="elk9p900oqz5g" class="animable"></path><path d="M73.17,309.84s-.47-2.71,2.67-7.17,5.21-7.05,5.21-7.05,3,5.92.11,10.33A67.37,67.37,0,0,1,74,314.73Z" style="fill: rgb(86, 107, 47); transform-origin: 77.7808px 305.175px;" id="elnqx4goelt8l" class="animable"></path><path d="M81.61,325.84s-.46-2.72,2.68-7.17,5.2-7.05,5.2-7.05,3,5.91.11,10.32a67.72,67.72,0,0,1-7.14,8.78Z" style="fill: rgb(86, 107, 47); transform-origin: 86.2215px 321.17px;" id="elu655tzhe8ts" class="animable"></path><path d="M74.21,314.43s-.76-2.65-5.52-5.31S60.94,305,60.94,305s-.12,6.62,4.38,9.35a67.42,67.42,0,0,0,10.24,4.81Z" style="fill: rgb(86, 107, 47); transform-origin: 68.2498px 312.08px;" id="elvltvisot8pr" class="animable"></path><path d="M84.33,333.29s-1-2.56-6-4.7-8.14-3.25-8.14-3.25.58,6.59,5.34,8.83a68.3,68.3,0,0,0,10.69,3.72Z" style="fill: rgb(86, 107, 47); transform-origin: 78.205px 331.615px;" id="el899gxep42xm" class="animable"></path><path d="M86.86,355.32s-.47-2.71-4.93-5.85-7.27-4.89-7.27-4.89-.82,6.57,3.36,9.76a67.83,67.83,0,0,0,9.68,5.87Z" style="fill: rgb(86, 107, 47); transform-origin: 81.1474px 352.395px;" id="elfskbmbdp76k" class="animable"></path><path d="M87.84,360.64S87,358,89.47,353.16s4.15-7.72,4.15-7.72,3.79,5.43,1.58,10.21a67.87,67.87,0,0,1-5.83,9.7Z" style="fill: rgb(86, 107, 47); transform-origin: 91.7972px 355.395px;" id="elecedvcxblh9" class="animable"></path><path d="M95.45,382.53s.31-2.74,4.58-6.13,7-5.29,7-5.29,1.2,6.51-2.8,9.93a68,68,0,0,1-9.33,6.41Z" style="fill: rgb(86, 107, 47); transform-origin: 101.049px 379.28px;" id="el2b42w6jg4ng" class="animable"></path><path d="M94.32,375.78s-.47-2.72-4.92-5.86S82.12,365,82.12,365s-.82,6.57,3.37,9.76a67.24,67.24,0,0,0,9.68,5.87Z" style="fill: rgb(86, 107, 47); transform-origin: 88.6126px 372.815px;" id="elj72f5goxyfp" class="animable"></path><path d="M94.26,390.53s.24-2.75-3.28-6.91-5.8-6.58-5.8-6.58-2.46,6.15.79,10.3a68.22,68.22,0,0,0,7.87,8.13Z" style="fill: rgb(86, 107, 47); transform-origin: 89.2757px 386.255px;" id="elroe3bq5hpl" class="animable"></path><path d="M72.7,309.21a81.35,81.35,0,0,0,2.5,8.24c2.85,7.5,7.47,11.86,10.18,18.61s0,16.52,2.68,25.32,7.09,13.2,7.12,19.38-2.4,23.36-2.4,23.36" style="fill: none; stroke: rgb(38, 50, 56); stroke-linecap: round; stroke-linejoin: round; stroke-width: 1.03476px; transform-origin: 83.9401px 356.665px;" id="elfyd0t3z921e" class="animable"></path><line x1="74.56" y1="316.22" x2="69.92" y2="313.79" style="fill: none; stroke: rgb(38, 50, 56); stroke-linecap: round; stroke-linejoin: round; stroke-width: 1.03476px; transform-origin: 72.24px 315.005px;" id="elg74rqigeo0m" class="animable"></line><line x1="73.74" y1="312.64" x2="74.93" y2="309.29" style="fill: none; stroke: rgb(38, 50, 56); stroke-linecap: round; stroke-linejoin: round; stroke-width: 1.03476px; transform-origin: 74.335px 310.965px;" id="eldirut35fovo" class="animable"></line><path d="M85.1,335.78s-3.87-2-7.84-3.94" style="fill: none; stroke: rgb(38, 50, 56); stroke-linecap: round; stroke-linejoin: round; stroke-width: 1.03476px; transform-origin: 81.18px 333.81px;" id="el0x6vj6tjjrug" class="animable"></path><path d="M82.46,330.72a55.92,55.92,0,0,1,4.48-10.37" style="fill: none; stroke: rgb(38, 50, 56); stroke-linecap: round; stroke-linejoin: round; stroke-width: 1.03476px; transform-origin: 84.7px 325.535px;" id="elz9uhhrh7b5s" class="animable"></path><path d="M87.39,359.21a42.86,42.86,0,0,0-9-8.54" style="fill: none; stroke: rgb(38, 50, 56); stroke-linecap: round; stroke-linejoin: round; stroke-width: 1.03476px; transform-origin: 82.89px 354.94px;" id="elk7h72cntw6b" class="animable"></path><path d="M88.72,362.9a48.35,48.35,0,0,1,2.49-7.69c1.49-3.29,1.71-3.73,1.71-3.73" style="fill: none; stroke: rgb(38, 50, 56); stroke-linecap: round; stroke-linejoin: round; stroke-width: 1.03476px; transform-origin: 90.82px 357.19px;" id="eltn0gm3m747g" class="animable"></path><path d="M95,385.45a40.9,40.9,0,0,1,5-5.18,26.37,26.37,0,0,0,3.24-2.81" style="fill: none; stroke: rgb(38, 50, 56); stroke-linecap: round; stroke-linejoin: round; stroke-width: 1.03476px; transform-origin: 99.12px 381.455px;" id="elc3gkqf23yo5" class="animable"></path><path d="M95.18,380.76a45.83,45.83,0,0,0-4.16-5.7,40,40,0,0,0-4.91-4.55" style="fill: none; stroke: rgb(38, 50, 56); stroke-linecap: round; stroke-linejoin: round; stroke-width: 1.03476px; transform-origin: 90.645px 375.635px;" id="el5l7ifug320t" class="animable"></path><path d="M93.84,395.47a11.86,11.86,0,0,0-2.06-5.84c-1.91-2.51-4.16-5.85-5.07-7.16" style="fill: none; stroke: rgb(38, 50, 56); stroke-linecap: round; stroke-linejoin: round; stroke-width: 1.03476px; transform-origin: 90.275px 388.97px;" id="elq1vqoo6etz" class="animable"></path><path d="M80.41,401.13H120a0,0,0,0,1,0,0v29.81a3,3,0,0,1-3,3H83.45a3,3,0,0,1-3-3V401.13A0,0,0,0,1,80.41,401.13Z" style="fill: rgb(38, 50, 56); transform-origin: 100.205px 417.535px;" id="eltx0qdaj8am" class="animable"></path><path d="M119.69,406.3H80.41a3.1,3.1,0,0,1-3.1-3.11h0a3.1,3.1,0,0,1,3.1-3.1h39.28a3.1,3.1,0,0,1,3.1,3.1h0A3.1,3.1,0,0,1,119.69,406.3Z" style="fill: rgb(38, 50, 56); transform-origin: 100.05px 403.195px;" id="elaakwx115pno" class="animable"></path></g><g id="freepik--Character--inject-423" class="animable animator-active" style="transform-origin: 219.216px 269.575px;"><path d="M132,424s-2.15,8.28-2.15,10.37-.52,3.49,4,4.36,7.5.35,8.2-1.74,1.22-12.57,1.22-12.57l-11-2.1Z" style="fill: rgb(255, 255, 255); stroke: rgb(38, 50, 56); stroke-linecap: round; stroke-linejoin: round; stroke-width: 1.03476px; transform-origin: 136.551px 430.727px;" id="eljkzfmoepeno" class="animable"></path><path d="M142,437a8.62,8.62,0,0,0,.3-1.46,74,74,0,0,1-12.52-1c0,2-.39,3.35,4,4.19S141.33,439.09,142,437Z" style="fill: rgb(255, 255, 255); stroke: rgb(38, 50, 56); stroke-linecap: round; stroke-linejoin: round; stroke-width: 1.03476px; transform-origin: 136.036px 436.831px;" id="el0expl45y20fl" class="animable"></path><path d="M238.05,424.78s3.49,1.22,8.56,2.79S262,430.89,263,431.06s1,2.27.17,3.15-5.41,3.49-10.82,4.88-23.75,2.62-25.32,1.58c-1.31-.88-.87-9.43-.35-11.35S238.05,424.78,238.05,424.78Z" style="fill: rgb(255, 255, 255); stroke: rgb(38, 50, 56); stroke-linecap: round; stroke-linejoin: round; stroke-width: 1.03476px; transform-origin: 244.971px 432.919px;" id="elrytq61eum1b" class="animable"></path><path d="M263.19,434.21a2.61,2.61,0,0,0,.52-2.45c-3.54,2.82-10.61,5.92-17.8,6.64a128.64,128.64,0,0,1-19.6-.1c.13,1.2.36,2.11.74,2.37,1.57,1,19.9-.18,25.32-1.58S262.32,435.08,263.19,434.21Z" style="fill: rgb(255, 255, 255); stroke: rgb(38, 50, 56); stroke-linecap: round; stroke-linejoin: round; stroke-width: 1.03476px; transform-origin: 245.065px 436.401px;" id="elqkuyypya8" class="animable"></path><path d="M153.6,272.57s-3,18.26-.68,28.4c0,0-4.39,40.22-5.07,58.14,0,0-9.46,31.44-10.82,41.24A241.41,241.41,0,0,1,132,424a21.41,21.41,0,0,0,6.76,2.37c4.74,1,5.41-2.71,5.41-2.71s26-59.83,28.06-68.62S181,314.83,181,314.83L209,366.21s1.36,17.58,5.41,27.72,11.83,38.19,11.83,38.19a28,28,0,0,0,9.13-1c4.06-1.35,4.06-3.38,4.06-3.38s-6.09-22.65-6.09-30.08-2.36-32.79-4.05-39.89-13.19-44.28-14.88-48.34-5.41-16.9-5.41-16.9l-2.36-19.95S177.6,280.69,153.6,272.57Z" style="fill: rgb(38, 50, 56); stroke: rgb(38, 50, 56); stroke-linecap: round; stroke-linejoin: round; stroke-width: 1.03476px; transform-origin: 185.715px 352.367px;" id="elw6o3dtwm02l" class="animable"></path><path d="M175.05,186.42s-1.56-3.37-1.56-5.44-1-11.91-1-11.91,15-27.17,19.15-32.35a63.53,63.53,0,0,1,9.06-9.06s10.1-2.07,12.17-2.07,4.4-1,4.4-2.33-3.37-1-5.44-1-4.66-1.81-4.66-1.81,3.37-9.65,4.4-13.46c.55-2,2.33-6.21,1-6.21s-1.55,1-2.33,2.59-4.14,6.73-4.14,6.73l.77-11.39s-1-1.55-1.81.26a77.91,77.91,0,0,0-2.59,8.54,6.25,6.25,0,0,1-1.29,2.46l-1-8.49s-1.76-1.87-2.07,1.37c-.17,1.8,0,7.77,0,8.8s-1-1.47-1-1.47-.61-2.81-1.29-3.19-1.29.52-1,2.59-.26,10.61-.26,10.61-1.55,2.07-3.88,4.92-21,19.67-28,25.11-7.76,9.84-8.8,15.27-2.07,37-2.07,48.41,1,29.5,1.81,35.46S153,263,152,267.18s0,7.76,2.85,9.83,15,3.37,25.1,3.37,20.45-1,23.56-2.07S209,277,209,272.87s-2.07-12.42-2.07-14.75,4.15-26.4,4.15-26.4,26.4,8,31.32,6.21,46.07-40.64,46.07-40.64,6.47-2.59,9.84-3.11,8.54-2.84,8.8-3.62-.52-.52-2.59-.52a24.4,24.4,0,0,0-5.44,1s7.07-4.48,8.29-4.92c.84-.31,2.29-2.22.26-1.81-2.55.51-8.8,2.33-8.8,2.33l8.28-5.18s1.29-2.07-.26-2.07-9.32,4.66-9.32,4.66l6-5.62c1.17-1.08.19-2.61-1.19-1.81l-7,4a27.1,27.1,0,0,1-5.4,2.41l-1.29.78a34.22,34.22,0,0,0,.52-4.14c0-1.3-.78-4.66-2.59-4.92s-.26,2.33-.26,3.62-2.59,8-2.59,9.06v3.11s-8.8,7.76-16.82,11.91-26.15,17.86-26.15,17.86-20.7-10.62-25.36-14.5-9.84-8.54-15-12.68a64.24,64.24,0,0,0-8.54-6Z" style="fill: rgb(255, 255, 255); stroke: rgb(38, 50, 56); stroke-linecap: round; stroke-linejoin: round; stroke-width: 1.03476px; transform-origin: 230.142px 189.236px;" id="elkfxvi37agbq" class="animable"></path><path d="M261.55,205.65c-8.79,5.62-20.76,14.68-20.76,14.68s-20.7-10.62-25.36-14.5-9.84-8.54-15-12.68a64.24,64.24,0,0,0-8.54-6l-16.82-.77s-1.56-3.37-1.56-5.44-1-11.91-1-11.91,7.75-14,13.65-23.85l-.47-.48c-2.9-2.89-6.91-4.45-10.41-5.3-4.88,4.33-9.73,8.5-12.61,10.74-7,5.43-7.76,9.84-8.8,15.27s-2.07,37-2.07,48.41,1,29.5,1.81,35.46S153,263,152,267.18s0,7.76,2.85,9.83,15,3.37,25.1,3.37,20.45-1,23.56-2.07S209,277,209,272.87s-2.07-12.42-2.07-14.75,4.15-26.4,4.15-26.4,26.4,8,31.32,6.21c2.62-1,15.6-12.5,27.11-23A35.38,35.38,0,0,0,261.55,205.65Z" style="fill: rgb(86, 107, 47); stroke: rgb(38, 50, 56); stroke-linecap: round; stroke-linejoin: round; stroke-width: 1.03476px; transform-origin: 210.566px 209.89px;" id="elyg2kjr59icq" class="animable"></path><path d="M203,197.76S192.58,200.6,192,208.49" style="fill: none; stroke: rgb(38, 50, 56); stroke-linecap: round; stroke-linejoin: round; stroke-width: 1.03476px; transform-origin: 197.5px 203.125px;" id="el9il2sogfrvm" class="animable"></path><path d="M211,231.72s-12.14-3.34-18.45-9.66" style="fill: none; stroke: rgb(38, 50, 56); stroke-linecap: round; stroke-linejoin: round; stroke-width: 1.03476px; transform-origin: 201.775px 226.89px;" id="elfslxwoydfi" class="animable"></path><path d="M204.26,230s-10.42,2.84-19.89-.94" style="fill: none; stroke: rgb(38, 50, 56); stroke-linecap: round; stroke-linejoin: round; stroke-width: 1.03476px; transform-origin: 194.315px 230.042px;" id="eltyncgz558k" class="animable"></path><path d="M160.3,213.23s3.29,23,19.15,34.46" style="fill: none; stroke: rgb(38, 50, 56); stroke-linecap: round; stroke-linejoin: round; stroke-width: 1.03476px; transform-origin: 169.875px 230.46px;" id="ellafcy313uss" class="animable"></path><path d="M184.45,254c1.21.33,2.46.62,3.75.85" style="fill: none; stroke: rgb(38, 50, 56); stroke-linecap: round; stroke-linejoin: round; stroke-width: 1.03476px; transform-origin: 186.325px 254.425px;" id="el43fnzg7cejp" class="animable"></path><path d="M160.3,236.2a44.5,44.5,0,0,0,17.75,15.36" style="fill: none; stroke: rgb(38, 50, 56); stroke-linecap: round; stroke-linejoin: round; stroke-width: 1.03476px; transform-origin: 169.175px 243.88px;" id="elxd56mkidxy" class="animable"></path><path d="M157.23,185.14s10.1-5,16.1-.32" style="fill: none; stroke: rgb(38, 50, 56); stroke-linecap: round; stroke-linejoin: round; stroke-width: 1.03476px; transform-origin: 165.28px 183.98px;" id="elngsx529e42m" class="animable"></path><path d="M160.07,162.1s9.16,3.16,11.68,9.47" style="fill: none; stroke: rgb(38, 50, 56); stroke-linecap: round; stroke-linejoin: round; stroke-width: 1.03476px; transform-origin: 165.91px 166.835px;" id="el07w8zz9p2g3c" class="animable"></path><path d="M166.07,159.89a12.9,12.9,0,0,1,4.42,6.94" style="fill: none; stroke: rgb(38, 50, 56); stroke-linecap: round; stroke-linejoin: round; stroke-width: 1.03476px; transform-origin: 168.28px 163.36px;" id="elsw0ob33v9b" class="animable"></path><path d="M209.21,145s1.56,8.8,1.56,11.13-2.59,3.11-1.56,6.21,3.37,3.37,2.85,6-3.88,4.14-3.88,4.14-1.81,7.25-3.63,10.35-8.54.78-8.54.78l-.52,8.28s-2.33,3.37-10.87,2.33a47.39,47.39,0,0,1-14.23-3.88l-1.3-1.81s6.73-3.37,7-5.7,0-7.76,0-15.53-2.33-22.78,10.35-26.66S209.21,145,209.21,145Z" style="fill: rgb(255, 255, 255); stroke: rgb(38, 50, 56); stroke-linecap: round; stroke-linejoin: round; stroke-width: 1.03476px; transform-origin: 190.612px 167.01px;" id="eli8im3yl8g8" class="animable"></path><path d="M193.4,166.25s-2.92-6.7-6.19-2.87c-2.12,2.49.52,9.84,1.81,10.87s4.14.52,4.14.52-4.14,4.14-8.54,4.14-8.28-4.14-11.13-11.39-4.92-19.67-1.81-27.18,19.16-7.76,22.78-7.76,9.06,2.07,9.06,2.07,11.65-1,11.91,2.85-1.56,4.14-1.56,4.14,8.29,4.4,4.4,6.21-9.83.78-13.72.78a5.55,5.55,0,0,0-5.17,2.84s3.62,2.33,2.33,3.37-6,3.1-6.47,4.92,1.81,4.66.25,6S193.4,166.25,193.4,166.25Z" style="fill: rgb(38, 50, 56); stroke: rgb(38, 50, 56); stroke-linecap: round; stroke-linejoin: round; stroke-width: 1.03476px; transform-origin: 194.719px 155.745px;" id="elfdqgmwxx0h9" class="animable"></path><path d="M207.8,163.12c0,1.32-.55,2.39-1.22,2.39s-1.21-1.07-1.21-2.39.55-2.39,1.21-2.39S207.8,161.8,207.8,163.12Z" style="fill: rgb(38, 50, 56); transform-origin: 206.585px 163.12px;" id="elzx2oc73uru" class="animable"></path><path d="M203.56,160.07s1.67-3.9,4.32-1.81" style="fill: none; stroke: rgb(38, 50, 56); stroke-linecap: round; stroke-linejoin: round; stroke-width: 1.03476px; transform-origin: 205.72px 158.857px;" id="el2yquc6wqmur" class="animable"></path><polyline points="180.98 314.83 178.61 310.43 166.78 307.39" style="fill: none; stroke: rgb(255, 255, 255); stroke-linecap: round; stroke-linejoin: round; stroke-width: 1.03476px; transform-origin: 173.88px 311.11px;" id="elwbvqho84y3" class="animable"></polyline></g><defs>     <filter id="active" height="200%">         <feMorphology in="SourceAlpha" result="DILATED" operator="dilate" radius="2"></feMorphology>                <feFlood flood-color="#32DFEC" flood-opacity="1" result="PINK"></feFlood>        <feComposite in="PINK" in2="DILATED" operator="in" result="OUTLINE"></feComposite>        <feMerge>            <feMergeNode in="OUTLINE"></feMergeNode>            <feMergeNode in="SourceGraphic"></feMergeNode>        </feMerge>    </filter>    <filter id="hover" height="200%">        <feMorphology in="SourceAlpha" result="DILATED" operator="dilate" radius="2"></feMorphology>                <feFlood flood-color="#ff0000" flood-opacity="0.5" result="PINK"></feFlood>        <feComposite in="PINK" in2="DILATED" operator="in" result="OUTLINE"></feComposite>        <feMerge>            <feMergeNode in="OUTLINE"></feMergeNode>            <feMergeNode in="SourceGraphic"></feMergeNode>        </feMerge>            <feColorMatrix type="matrix" values="0   0   0   0   0                0   1   0   0   0                0   0   0   0   0                0   0   0   1   0 "></feColorMatrix>    </filter></defs></svg>